<svg width="334" height="277" viewBox="0 0 334 277" fill="none" xmlns="http://www.w3.org/2000/svg">
<path fill-rule="evenodd" clip-rule="evenodd" d="M333.92 146.716C333.973 145.316 334 143.91 334 142.5C334 141.374 334.001 140.24 334.002 139.101C334.031 102.852 334.065 60.5721 305 37C274.747 12.4641 213.326 8 167 8C119.122 8 62.4502 11.0024 32 37C3.79102 61.0841 0 106.778 0 142.5C0 143.972 0.0293425 145.438 0.0875821 146.898C111.876 156.792 222.1 156.685 333.92 146.716ZM333.063 156.831C221.842 166.647 112.16 166.754 0.960932 157.013C9.94726 224.47 80.8568 277 167 277C253.221 277 324.181 224.375 333.063 156.831Z" fill="#EE6055"/>
<path d="M219.957 37.9394C230.809 41.5515 236.553 50.943 236.553 50.943C217.941 46.4747 193.506 41.683 175.352 51.2192L168.255 56C148.403 45.0185 126.302 40.4669 103.787 41.5515L106.34 39.7454C92.3819 23.5497 71.0058 18.2027 54 6.15271C74.809 9.64999 95.1206 14.4234 114 24.2133C105.549 17.1599 97.2558 9.93998 89.1064 2.54059C114.915 0.867881 136.163 12.816 155.5 28.5C162.256 22.2579 171.735 21.6393 178.5 28C193.818 13.0488 206.796 2.01351 228.894 2.54059C216.308 15.0217 204.628 28.6349 191 40C206.786 34.8998 219.855 24.9505 236.553 21.3236C256.241 17.0474 274.621 18.578 294 24.2133C269.091 24.9181 242.733 25.0505 219.957 37.9394Z" fill="#AAF683"/>
<path d="M168.255 56L152.298 43.0996M168.255 56L181.66 46.9697M168.255 56C148.403 45.0185 126.302 40.4669 103.787 41.5515L106.34 39.7454M168.255 56C186.68 40.36 215.384 45.8607 236.553 50.943C236.553 50.943 230.809 41.5515 219.957 37.9394M219.957 37.9394C207.191 35.7721 191 40 191 40M219.957 37.9394C242.733 25.0505 269.091 24.9181 294 24.2133C274.621 18.578 256.241 17.0474 236.553 21.3236C219.855 24.9505 206.786 34.8998 191 40M191 40L181.66 46.9697M191 40C204.628 28.6349 216.308 15.0217 228.894 2.54059C206.796 2.01351 193.818 13.0488 178.5 28M132 34.3273L114 24.2133M132 34.3273C136 35.2485 142 36 152.298 43.0996M132 34.3273C123.671 32.4091 112.495 33.908 106.34 39.7454M152.298 43.0996C151.489 37.7072 151.942 32.8055 155.5 28.5M155.5 28.5C136.163 12.816 114.915 0.867881 89.1064 2.54059C97.2558 9.93998 105.549 17.1599 114 24.2133M155.5 28.5C162.256 22.2579 171.735 21.6393 178.5 28M178.5 28C183.288 33.5969 183.362 39.9846 181.66 46.9697M114 24.2133C95.1206 14.4234 74.809 9.64999 54 6.15271C71.0058 18.2027 92.3819 23.5497 106.34 39.7454" stroke="#60D394" stroke-width="3" stroke-linecap="round" stroke-linejoin="round"/>
<path d="M39 107.771C46.3246 83.1096 70.0259 62.0007 92.5 51M251.5 59.1376C273.187 67.5949 289.985 90.6463 294 113" stroke="#FF9B85" stroke-width="3" stroke-linecap="round"/>
</svg>
