<svg width="623" height="684" viewBox="0 0 623 684" fill="none" xmlns="http://www.w3.org/2000/svg">
<path d="M248.654 673V625.314C248.654 598.705 237.784 573.25 218.564 554.848V554.848C205.174 542.027 188.407 533.287 170.229 529.651L132.829 522.171C127.888 521.183 123.041 519.771 118.342 517.95L104.615 512.631C90.4262 507.133 79.199 495.928 73.6722 481.751V481.751C71.2238 475.47 69.9675 468.788 69.9675 462.047V446.926C69.9675 443.001 70.2604 439.082 70.8438 435.201L77.6743 389.764C80.2689 372.504 68.5691 356.343 51.3618 353.419V353.419C27.8212 349.419 16.7737 321.997 30.9666 302.795L68.4746 252.049C77.4842 239.859 82.3463 225.101 82.3463 209.944V201.493C82.3463 193.651 83.3023 185.838 85.1931 178.228L90.8332 155.526C99.359 121.21 117.27 89.945 142.56 65.2327V65.2327C178.141 30.4652 225.914 11 275.661 11H326.438C340.568 11 354.664 12.3911 368.521 15.1533L431.694 27.7451C480.341 37.4416 524.031 63.9312 555.124 102.581V102.581C574.472 126.632 588.32 154.626 595.696 184.598L605.842 225.827C614.096 259.367 614.159 294.401 606.024 327.97L594.861 374.041C588.023 402.263 575.546 428.81 558.18 452.084L506.995 520.686L481.698 554.924C457.442 587.754 443.018 626.803 440.11 667.518L439.719 673" stroke="#FDD692" stroke-width="21.5285" stroke-linecap="round"/>
<path d="M419.002 259.283L404.641 260.029C386.894 260.951 369.695 266.486 354.742 276.087L344.862 282.43C331.839 290.792 316.368 294.498 300.969 292.945L268.958 289.716C260.744 288.887 253.839 283.189 251.467 275.282L251.308 274.753C249.789 269.69 250.433 264.225 253.087 259.655V259.655C256.509 253.761 262.81 250.134 269.625 250.134L325.174 250.134C332.691 250.134 339.718 246.404 343.931 240.178V240.178C352.862 226.979 345.729 208.928 330.188 205.4L329.057 205.143C326.21 204.497 323.268 204.388 320.382 204.822L244.652 216.207C242.205 216.575 239.708 216.441 237.314 215.814L236.504 215.602C227.502 213.243 221.957 204.21 223.929 195.115V195.115C225.431 188.182 230.997 182.86 237.99 181.668L299.769 171.143L318.422 167.965C339.438 164.384 360.311 175.034 369.746 194.151L377.848 210.565C384.63 224.308 400.971 230.355 415.066 224.338V224.338C422.125 221.325 427.693 215.625 430.54 208.498L439.163 186.913C443.594 175.819 434.21 164.111 422.389 165.838V165.838C418.96 166.339 415.782 168.012 413.44 170.568V170.568C406.916 177.69 395.467 176.91 389.969 168.969L387.866 165.932C386.051 163.311 384.965 160.256 384.719 157.077L384.608 155.654C383.668 143.533 373.558 134.176 361.4 134.176L347.42 134.176V134.176C316.007 132.207 284.532 136.894 255.056 147.931L253.772 148.412L220.16 156.792C209.69 159.403 199.553 151.482 199.553 140.692V140.692C199.553 133.299 204.444 126.797 211.547 124.748L248.928 113.966L308.669 101.691L344.144 97.8058C350.597 97.099 357.101 96.9855 363.574 97.4665L375.79 98.3743C393.263 99.6729 409.691 107.198 422.086 119.582L429.443 126.932C434.185 131.669 440.144 135.002 446.662 136.561V136.561C460.808 139.947 471.571 151.445 474.014 165.785L475.012 171.641C476.636 181.177 475.167 190.983 470.818 199.624L464.873 211.435C460.362 220.399 458.232 230.373 458.687 240.397L458.981 246.868C459.682 262.309 452.644 277.084 440.212 286.268V286.268C434.062 290.813 426.883 293.765 419.315 294.863L398.6 297.868C384.727 299.881 371.428 304.773 359.558 312.232V312.232C343.539 322.297 325.005 327.636 306.087 327.636L303.2 327.636C297.525 327.636 291.859 327.199 286.252 326.329L270.656 323.909C265.876 323.167 261.201 321.856 256.732 320.003L249.156 316.862C231.098 309.374 219.326 291.749 219.326 272.2V272.2M230.09 242.061C226.101 241.464 222.905 240.935 220.314 240.446C205.594 237.667 197.51 221.905 193.936 207.357V207.357C192.926 203.247 192.415 199.03 192.415 194.797L192.415 183.64" stroke="white" stroke-width="21.5285" stroke-linecap="round"/>
</svg>
