<svg width="600" height="600" viewBox="0 0 600 600" fill="none" xmlns="http://www.w3.org/2000/svg">
<path d="M52 99C48.6978 63.4206 72.1682 20.2714 109.913 17.1586L144.084 14.3405C181.829 11.2277 213.698 45.9206 217 81.5L234.5 214.5L237.5 294.132L240.5 373.763C240.5 429.731 240.5 432.549 183.946 443.821L149.774 446.639C112.03 449.752 78.7546 423.433 75.4523 387.854L69 246.5L52 99Z" fill="white"/>
<path d="M305.793 73.1264C302.491 37.547 330.412 6.18087 368.156 3.06808L402.328 0.249977C440.072 -2.86281 473.347 23.4565 476.65 59.0359L500.5 332C503.802 367.579 479.934 426.618 442.189 429.731L408.018 432.549C370.273 435.662 337.5 417.5 333.696 373.763L331.848 328.132V306L330 282.5L322.316 196L305.793 73.1264Z" fill="white"/>
<path d="M322.316 596.219C144.141 608.362 52.6364 588.286 18.5873 577.765C8.35657 574.604 1.73533 565.964 0.300547 555.906C-2.72245 534.713 17.5415 517.094 39.381 522.875C122.232 544.805 114.682 558.943 322.316 540.231C531.922 521.341 506.768 497.051 567.912 480.732C584.482 476.31 600 489.01 600 505.243C600 509.923 598.688 514.488 595.351 517.952C579.428 534.479 516.851 582.96 322.316 596.219Z" fill="#FDD692"/>
</svg>
